<svg width="20" height="20" viewBox="0 0 16 16" fill="none" xmlns="http://www.w3.org/2000/svg">
<path d="M8.00034 9.33337C9.107 9.33337 10.0003 8.44004 10.0003 7.33337V3.33337C10.0003 2.22671 9.107 1.33337 8.00034 1.33337C6.89367 1.33337 6.00034 2.22671 6.00034 3.33337V7.33337C6.00034 8.44004 6.89367 9.33337 8.00034 9.33337ZM11.9403 7.33337C11.6137 7.33337 11.3403 7.57337 11.287 7.90004C11.0137 9.46671 9.647 10.6667 8.00034 10.6667C6.35367 10.6667 4.987 9.46671 4.71367 7.90004C4.66034 7.57337 4.387 7.33337 4.06034 7.33337C3.65367 7.33337 3.33367 7.69337 3.39367 8.09337C3.72034 10.0934 5.32034 11.66 7.33367 11.9467V13.3334C7.33367 13.7 7.63367 14 8.00034 14C8.367 14 8.667 13.7 8.667 13.3334V11.9467C10.6803 11.66 12.2803 10.0934 12.607 8.09337C12.6737 7.69337 12.347 7.33337 11.9403 7.33337Z" fill="white"/>
</svg>
